<svg width="24" height="24" viewBox="0 0 24 24" fill="none" xmlns="http://www.w3.org/2000/svg">
<path fill-rule="evenodd" clip-rule="evenodd" d="M17.7917 6.23214C18.0777 6.53177 18.0666 7.00651 17.767 7.29252L12.8406 11.995L17.7683 16.7071C18.0677 16.9934 18.0783 17.4681 17.7921 17.7675C17.5058 18.0669 17.031 18.0775 16.7317 17.7912L11.7898 13.0656L7.2929 17.7683C7.00663 18.0677 6.53188 18.0783 6.2325 17.7921C5.93313 17.5058 5.92251 17.031 6.20878 16.7317L10.7285 12.005L6.20748 7.26869C5.92148 6.96907 5.93252 6.49432 6.23214 6.20832C6.53177 5.92232 7.00651 5.93336 7.29252 6.23298L11.7798 10.9339L16.7313 6.20748C17.0309 5.92148 17.5057 5.93252 17.7917 6.23214Z" fill="#BBBBBB"/>
</svg>
