<svg width="139" height="34" viewBox="0 0 139 34" fill="none" xmlns="http://www.w3.org/2000/svg">
<path d="M11.2494 33.28C9.19604 33.28 7.35604 32.9467 5.72938 32.28C4.10271 31.6133 2.79604 30.6267 1.80938 29.32C0.849375 28.0133 0.342708 26.44 0.289375 24.6H7.56938C7.67604 25.64 8.03604 26.44 8.64938 27C9.26271 27.5333 10.0627 27.8 11.0494 27.8C12.0627 27.8 12.8627 27.5733 13.4494 27.12C14.036 26.64 14.3294 25.9867 14.3294 25.16C14.3294 24.4667 14.0894 23.8933 13.6094 23.44C13.156 22.9867 12.5827 22.6133 11.8894 22.32C11.2227 22.0267 10.2627 21.6933 9.00938 21.32C7.19604 20.76 5.71604 20.2 4.56938 19.64C3.42271 19.08 2.43604 18.2533 1.60938 17.16C0.782708 16.0667 0.369375 14.64 0.369375 12.88C0.369375 10.2667 1.31604 8.22667 3.20938 6.76C5.10271 5.26667 7.56938 4.52 10.6094 4.52C13.7027 4.52 16.196 5.26667 18.0894 6.76C19.9827 8.22667 20.996 10.28 21.1294 12.92H13.7294C13.676 12.0133 13.3427 11.3067 12.7294 10.8C12.116 10.2667 11.3294 10 10.3694 10C9.54271 10 8.87604 10.2267 8.36938 10.68C7.86271 11.1067 7.60938 11.7333 7.60938 12.56C7.60938 13.4667 8.03604 14.1733 8.88937 14.68C9.74271 15.1867 11.076 15.7333 12.8894 16.32C14.7027 16.9333 16.1694 17.52 17.2894 18.08C18.436 18.64 19.4227 19.4533 20.2494 20.52C21.076 21.5867 21.4894 22.96 21.4894 24.64C21.4894 26.24 21.076 27.6933 20.2494 29C19.4494 30.3067 18.276 31.3467 16.7294 32.12C15.1827 32.8933 13.356 33.28 11.2494 33.28ZM24.3388 21.8C24.3388 19.5067 24.7654 17.4933 25.6188 15.76C26.4988 14.0267 27.6854 12.6933 29.1788 11.76C30.6721 10.8267 32.3388 10.36 34.1788 10.36C35.7521 10.36 37.1254 10.68 38.2988 11.32C39.4988 11.96 40.4188 12.8 41.0588 13.84V10.68H47.8988V33H41.0588V29.84C40.3921 30.88 39.4588 31.72 38.2588 32.36C37.0854 33 35.7121 33.32 34.1388 33.32C32.3254 33.32 30.6721 32.8533 29.1788 31.92C27.6854 30.96 26.4988 29.6133 25.6188 27.88C24.7654 26.12 24.3388 24.0933 24.3388 21.8ZM41.0588 21.84C41.0588 20.1333 40.5788 18.7867 39.6188 17.8C38.6854 16.8133 37.5388 16.32 36.1788 16.32C34.8188 16.32 33.6588 16.8133 32.6988 17.8C31.7654 18.76 31.2988 20.0933 31.2988 21.8C31.2988 23.5067 31.7654 24.8667 32.6988 25.88C33.6588 26.8667 34.8188 27.36 36.1788 27.36C37.5388 27.36 38.6854 26.8667 39.6188 25.88C40.5788 24.8933 41.0588 23.5467 41.0588 21.84ZM62.8872 26.6L67.7272 10.68H75.0072L67.0872 33H58.6472L50.7272 10.68H58.0472L62.8872 26.6ZM98.9262 21.48C98.9262 22.12 98.8863 22.7867 98.8063 23.48H83.3263C83.4329 24.8667 83.8729 25.9333 84.6463 26.68C85.4463 27.4 86.4196 27.76 87.5663 27.76C89.2729 27.76 90.4596 27.04 91.1263 25.6H98.4063C98.0329 27.0667 97.3529 28.3867 96.3663 29.56C95.4063 30.7333 94.1929 31.6533 92.7263 32.32C91.2596 32.9867 89.6196 33.32 87.8063 33.32C85.6196 33.32 83.6729 32.8533 81.9663 31.92C80.2596 30.9867 78.9263 29.6533 77.9663 27.92C77.0063 26.1867 76.5263 24.16 76.5263 21.84C76.5263 19.52 76.9929 17.4933 77.9263 15.76C78.8863 14.0267 80.2196 12.6933 81.9263 11.76C83.6329 10.8267 85.5929 10.36 87.8063 10.36C89.9663 10.36 91.8863 10.8133 93.5663 11.72C95.2463 12.6267 96.5529 13.92 97.4863 15.6C98.4463 17.28 98.9262 19.24 98.9262 21.48ZM91.9263 19.68C91.9263 18.5067 91.5263 17.5733 90.7263 16.88C89.9263 16.1867 88.9263 15.84 87.7263 15.84C86.5796 15.84 85.6063 16.1733 84.8063 16.84C84.0329 17.5067 83.5529 18.4533 83.3663 19.68H91.9263ZM105.735 33.32C104.535 33.32 103.548 32.9733 102.775 32.28C102.028 31.56 101.655 30.68 101.655 29.64C101.655 28.5733 102.028 27.68 102.775 26.96C103.548 26.24 104.535 25.88 105.735 25.88C106.908 25.88 107.868 26.24 108.615 26.96C109.388 27.68 109.775 28.5733 109.775 29.64C109.775 30.68 109.388 31.56 108.615 32.28C107.868 32.9733 106.908 33.32 105.735 33.32ZM117.264 8.36C116.064 8.36 115.077 8.01333 114.304 7.32C113.557 6.6 113.184 5.72 113.184 4.68C113.184 3.61333 113.557 2.73333 114.304 2.04C115.077 1.32 116.064 0.959998 117.264 0.959998C118.437 0.959998 119.397 1.32 120.144 2.04C120.917 2.73333 121.304 3.61333 121.304 4.68C121.304 5.72 120.917 6.6 120.144 7.32C119.397 8.01333 118.437 8.36 117.264 8.36ZM120.664 10.68V33H113.824V10.68H120.664ZM138.061 27.2V33H134.581C132.101 33 130.167 32.4 128.781 31.2C127.394 29.9733 126.701 27.9867 126.701 25.24V16.36H123.981V10.68H126.701V5.24H133.541V10.68H138.021V16.36H133.541V25.32C133.541 25.9867 133.701 26.4667 134.021 26.76C134.341 27.0533 134.874 27.2 135.621 27.2H138.061Z" fill="white"/>
</svg>
